<svg xmlns="http://www.w3.org/2000/svg" viewBox="0 0 32 32" width="32" height="32">
  <!-- Fondo circular con gradiente -->
  <defs>
    <linearGradient id="bgGradient" x1="0%" y1="0%" x2="100%" y2="100%">
      <stop offset="0%" style="stop-color:#0a0a0a;stop-opacity:1" />
      <stop offset="100%" style="stop-color:#1a1a1a;stop-opacity:1" />
    </linearGradient>
    <linearGradient id="textGradient" x1="0%" y1="0%" x2="100%" y2="100%">
      <stop offset="0%" style="stop-color:#00ffff;stop-opacity:1" />
      <stop offset="100%" style="stop-color:#0099cc;stop-opacity:1" />
    </linearGradient>
  </defs>
  
  <!-- Círculo de fondo -->
  <circle cx="16" cy="16" r="15" fill="url(#bgGradient)" stroke="#00ffff" stroke-width="2"/>
  
  <!-- Letra R -->
  <path d="M8 8 L8 24 M8 8 L16 8 Q20 8 20 12 Q20 16 16 16 L8 16 M16 16 L20 24" 
        stroke="url(#textGradient)" 
        stroke-width="2.5" 
        stroke-linecap="round" 
        stroke-linejoin="round" 
        fill="none"/>
  
  <!-- Letra S -->
  <path d="M24 12 Q24 8 20 8 Q16 8 16 12 Q16 16 20 16 Q24 16 24 20 Q24 24 20 24 Q16 24 16 20" 
        stroke="url(#textGradient)" 
        stroke-width="2.5" 
        stroke-linecap="round" 
        stroke-linejoin="round" 
        fill="none"/>
</svg>
